<?xml version="1.0" encoding="utf-8" ?>
<svg baseProfile="full" height="1080" version="1.1" width="1080" xmlns="http://www.w3.org/2000/svg" xmlns:ev="http://www.w3.org/2001/xml-events" xmlns:xlink="http://www.w3.org/1999/xlink"><defs /><rect fill="white" height="1080" width="1080" x="0" y="0" /><polygon fill="#3972E6" points="221,418 219,420 218,420 219,421 218,422 212,422 211,423 211,424 209,426 207,426 206,427 206,429 205,430 204,430 203,431 202,431 202,434 201,435 199,435 197,437 197,443 196,444 195,444 194,445 194,446 193,447 193,459 194,460 194,461 195,462 194,463 195,462 197,464 197,471 198,472 199,472 200,473 201,473 202,474 202,477 205,477 206,478 206,480 207,481 208,481 209,482 210,482 213,485 214,485 215,486 228,486 229,487 230,486 231,487 232,486 233,487 234,486 235,486 236,487 237,486 388,486 389,487 390,486 411,486 412,487 413,486 414,486 415,487 416,486 495,486 496,485 497,485 498,484 498,483 499,482 500,482 501,481 502,481 503,480 503,478 504,477 506,477 507,476 507,474 508,473 510,473 511,472 511,468 512,467 512,465 513,464 514,464 515,463 515,458 516,457 516,451 515,450 515,446 514,445 513,445 511,443 511,436 510,436 509,435 508,435 507,434 507,432 506,431 504,431 503,430 503,428 501,426 499,426 498,425 498,424 496,422 488,422 487,421 485,421 484,420 485,419 481,419 480,418 479,419 478,418" stroke="#3972E6" stroke-width="1" /><polygon fill="#3972E6" points="1005,290 1004,291 1001,291 1001,292 1000,293 1000,294 999,295 998,294 997,295 996,294 995,295 988,295 987,296 987,298 986,299 982,299 981,300 979,300 979,302 978,303 977,303 976,304 974,304 974,307 973,308 969,308 970,309 969,310 969,311 968,312 966,312 965,313 965,316 964,317 961,317 961,319 959,321 957,321 957,322 956,323 956,324 954,326 952,326 952,329 951,330 949,330 948,331 948,332 946,334 945,334 943,336 943,338 942,339 940,339 939,340 939,342 938,343 936,343 934,345 934,347 933,348 931,348 930,349 930,351 929,352 927,352 926,353 926,354 924,356 923,356 921,358 921,360 920,361 918,361 917,362 917,364 916,365 915,365 914,366 913,366 913,368 911,370 909,370 909,371 908,372 908,373 907,374 906,374 904,376 904,377 902,379 901,379 900,380 900,381 897,384 896,384 896,385 895,386 895,387 893,389 893,390 892,391 891,391 890,392 890,393 888,395 887,395 886,396 886,398 884,400 882,400 882,401 881,402 880,402 880,403 879,404 878,404 877,405 877,406 874,409 873,409 873,410 872,411 872,412 871,413 869,413 868,414 868,416 867,417 866,417 865,418 864,418 864,421 863,422 860,422 860,423 859,424 860,425 859,426 856,426 855,427 855,429 853,431 851,431 851,434 850,435 847,435 847,436 846,437 846,438 845,439 844,439 843,440 842,440 842,443 841,444 838,444 838,447 837,448 835,448 834,449 833,449 833,451 832,452 831,452 830,453 829,453 829,456 828,457 825,457 825,458 824,459 824,460 823,461 822,461 821,462 820,462 820,465 819,466 816,466 816,469 815,470 812,470 812,471 811,472 811,473 810,474 809,474 808,475 807,475 807,478 806,479 803,479 803,480 802,481 802,482 801,483 799,483 798,484 798,487 797,488 794,488 794,491 793,492 791,492 789,494 789,495 788,496 787,496 786,497 785,497 785,500 784,501 782,501 781,502 781,504 780,505 778,505 776,507 776,509 775,510 773,510 772,511 772,513 771,514 769,514 768,515 768,516 766,518 765,518 763,520 763,522 762,523 759,523 759,526 758,527 756,527 754,529 754,531 753,532 752,531 751,532 750,532 750,535 749,536 746,536 746,538 744,540 743,540 742,541 741,541 741,544 740,545 738,545 737,546 737,548 736,549 733,549 733,550 732,551 732,552 730,554 728,554 728,557 727,558 724,558 724,561 723,562 721,562 719,564 719,566 718,567 716,567 715,568 715,570 714,571 711,571 711,573 708,576 707,576 706,577 706,579 705,580 703,580 702,581 702,583 701,584 699,584 697,586 697,588 696,589 693,589 693,592 692,593 690,593 688,595 689,596 688,597 687,597 686,598 685,598 684,599 684,601 683,602 681,602 680,603 680,605 679,606 676,606 676,607 675,608 675,610 674,611 672,611 671,612 671,614 670,615 668,615 667,616 667,618 666,619 665,619 664,620 663,620 663,621 662,622 662,623 661,624 658,624 659,625 658,626 658,627 657,628 655,628 654,629 654,630 651,633 650,633 649,634 649,636 648,637 646,637 645,638 645,640 644,641 643,641 642,642 641,642 640,643 640,645 639,646 637,646 636,647 636,649 635,650 633,650 632,651 632,653 630,655 629,654 627,656 627,658 626,659 624,659 623,660 623,662 622,663 621,663 620,664 619,664 619,665 618,666 618,667 617,668 615,668 614,669 614,671 613,672 611,672 610,673 610,675 608,677 607,676 605,678 605,680 604,681 602,681 601,682 601,684 600,685 599,685 598,686 597,686 597,688 595,690 593,690 592,691 592,693 591,694 589,694 588,695 588,697 586,699 585,698 583,700 583,702 582,703 580,703 580,704 579,705 579,706 578,707 577,707 576,708 575,708 575,710 573,712 571,712 571,713 570,714 570,715 569,716 568,716 566,718 566,719 564,721 562,721 562,723 560,725 559,725 558,726 558,727 555,730 554,730 553,731 553,732 551,734 550,734 549,735 549,737 543,743 543,744 541,746 540,746 539,747 536,747 535,746 534,746 533,745 533,743 532,742 530,742 529,741 529,739 528,738 526,738 525,737 525,736 524,735 524,734 523,734 522,733 521,733 520,732 520,730 519,729 517,729 516,728 516,726 515,725 514,725 511,722 511,721 510,720 508,720 507,719 507,717 506,716 504,716 503,715 503,713 501,711 499,711 498,710 498,708 497,707 495,707 494,706 494,704 493,703 492,703 489,700 489,699 488,698 486,698 485,697 485,694 482,694 481,693 481,691 479,689 477,689 476,688 476,686 475,685 473,685 472,684 472,682 471,681 470,681 468,679 468,678 466,676 464,676 463,675 463,672 460,672 459,671 459,668 458,668 457,667 456,667 454,665 454,664 453,663 451,663 450,662 450,659 447,659 446,658 446,656 444,654 443,654 441,652 441,650 440,650 437,647 437,646 435,644 435,642 434,643 431,640 431,639 430,638 429,638 427,636 427,635 426,634 425,634 423,632 423,630 422,629 421,629 419,627 419,626 417,624 416,624 414,622 414,620 412,620 410,618 410,616 409,615 407,615 406,614 406,613 405,612 405,611 403,611 401,609 401,608 400,607 399,607 398,606 396,606 395,605 395,604 394,604 393,603 393,602 388,602 387,601 385,601 384,600 384,599 383,598 381,598 380,597 379,598 378,597 361,597 360,598 359,597 358,598 356,598 353,601 352,601 351,602 345,602 343,604 343,605 342,606 339,606 338,607 338,609 337,610 336,610 335,611 333,611 333,614 332,615 329,615 329,618 328,619 326,619 325,620 325,621 324,622 324,623 323,624 322,624 320,626 320,632 319,633 317,633 317,634 316,635 316,644 315,645 316,646 316,657 315,658 316,659 316,662 315,663 316,664 316,670 320,674 320,678 321,679 323,679 324,680 324,682 325,683 325,684 327,686 328,686 329,687 329,689 330,690 330,691 331,691 334,694 334,696 337,696 338,697 338,699 340,701 341,700 342,701 342,703 344,705 345,705 347,707 347,708 348,709 349,709 351,711 351,712 352,713 352,714 354,714 355,715 355,716 356,717 356,718 358,718 360,720 360,722 361,722 362,723 363,723 364,724 364,726 365,727 367,727 368,728 368,729 369,730 369,731 370,731 371,732 372,732 373,733 373,735 374,736 376,736 377,737 377,739 378,740 380,740 381,741 381,742 382,743 382,744 383,744 384,745 385,745 386,746 386,748 387,749 389,749 390,750 390,752 391,753 392,753 393,754 394,754 395,755 395,757 396,758 398,758 399,759 399,761 400,762 402,762 403,763 403,764 404,765 404,766 405,766 406,767 407,767 408,768 408,770 409,771 411,771 412,772 412,774 413,775 414,775 417,778 417,779 418,780 420,780 421,781 421,784 424,784 425,785 425,787 427,789 429,789 430,790 430,792 431,793 433,793 434,794 434,796 435,797 436,797 439,800 439,801 440,802 442,802 443,803 443,806 446,806 447,807 447,809 448,810 449,810 450,811 451,811 452,812 452,814 453,815 455,815 456,816 456,819 458,819 460,821 460,822 462,824 464,824 465,825 465,827 466,828 468,828 469,829 469,831 470,832 471,832 474,835 474,837 477,837 478,838 478,841 481,841 482,842 482,844 484,846 486,846 487,847 487,850 490,850 491,851 491,854 493,854 496,857 496,859 499,859 500,860 500,863 505,868 506,868 509,871 509,872 512,872 513,873 513,874 514,875 514,876 517,876 518,877 519,876 520,877 521,877 522,878 522,879 523,880 527,880 528,881 546,881 547,880 548,881 549,880 550,880 551,879 551,878 552,877 555,877 556,876 559,876 561,874 562,875 561,874 562,873 563,873 564,872 567,872 568,871 568,869 569,868 570,868 571,867 572,867 572,866 573,865 573,864 574,863 576,863 577,862 577,860 578,859 580,859 581,858 581,857 584,854 585,854 586,853 586,851 587,850 589,850 590,849 590,847 591,846 592,846 593,845 594,845 595,844 595,842 596,841 598,841 599,840 599,838 600,837 602,837 603,836 603,834 605,832 607,832 608,831 608,829 609,828 611,828 612,827 612,825 613,824 614,824 615,823 616,823 616,822 617,821 617,820 618,819 620,819 621,818 621,816 622,815 624,815 625,814 625,812 627,810 629,810 629,809 630,808 630,807 631,806 633,806 634,805 634,803 635,802 636,802 637,801 638,801 638,799 640,797 642,797 642,796 643,795 643,794 644,793 646,793 646,792 647,791 647,790 649,788 651,788 651,786 653,784 654,784 656,782 656,780 657,779 659,779 660,778 660,776 662,774 663,774 663,773 678,758 678,756 679,755 680,756 679,755 680,754 681,754 683,752 683,750 684,749 686,749 687,748 687,746 688,745 690,745 691,744 691,742 692,741 693,741 694,740 695,740 696,739 696,737 697,736 699,736 700,735 700,733 701,732 703,732 704,731 704,730 705,729 705,728 706,727 708,727 709,726 709,724 710,723 712,723 713,722 713,720 714,719 715,719 716,718 717,718 717,717 718,716 718,715 719,714 721,714 722,713 722,711 723,710 725,710 726,709 726,707 728,705 730,705 731,704 731,702 732,701 734,701 735,700 735,698 736,697 737,697 738,696 739,696 739,695 740,694 740,693 741,692 743,692 744,691 744,689 745,688 747,688 748,687 748,685 750,683 752,683 753,682 753,680 754,679 756,679 757,678 757,676 758,675 759,675 760,674 761,674 761,672 763,670 765,670 766,669 766,667 767,666 769,666 770,665 770,663 772,661 774,661 774,660 775,659 775,658 776,657 778,657 779,656 779,654 780,653 781,653 782,652 783,652 783,649 784,648 787,648 787,647 788,646 788,645 789,644 791,644 792,643 792,641 794,639 796,639 796,637 798,635 800,635 800,634 801,633 801,632 802,631 803,631 804,630 805,630 805,628 807,626 809,626 809,625 810,624 810,623 811,622 813,622 814,621 814,619 816,617 818,617 818,614 819,613 821,613 823,611 823,610 825,608 826,608 827,607 827,605 828,604 830,604 831,603 831,601 832,600 834,600 836,598 836,597 838,595 839,595 840,594 840,592 841,591 843,591 844,590 844,589 846,587 847,587 849,585 849,583 850,582 852,582 853,581 853,579 854,578 856,578 857,577 857,576 858,575 858,574 859,573 860,574 862,572 862,570 863,569 865,569 866,568 866,566 868,564 870,564 870,563 871,562 871,561 872,560 874,560 874,559 875,558 875,557 876,556 877,556 879,554 879,553 881,551 882,551 883,550 883,549 886,546 887,546 887,545 891,541 892,542 891,541 895,537 896,537 896,536 899,533 900,533 900,532 902,530 902,529 904,527 905,527 905,526 908,523 908,522 909,521 910,521 915,516 915,514 916,513 917,513 918,512 919,512 924,507 924,505 925,504 927,504 928,503 928,500 929,499 930,500 931,499 932,499 932,498 933,497 933,496 934,495 936,495 937,494 937,491 938,490 941,490 941,487 942,486 945,486 945,485 946,484 946,483 947,482 948,482 949,481 950,481 950,478 951,477 954,477 954,474 955,473 958,473 958,472 959,471 959,470 961,468 963,468 963,465 964,464 967,464 967,463 968,462 968,461 969,460 971,460 972,459 972,456 973,455 976,455 976,452 977,451 980,451 980,450 981,449 981,448 983,446 985,446 985,443 986,442 989,442 989,441 990,440 990,439 991,438 992,438 993,437 994,437 994,434 995,433 998,433 998,430 999,429 1002,429 1002,428 1003,427 1003,426 1005,424 1007,424 1007,421 1008,420 1011,420 1011,418 1013,416 1014,416 1016,414 1016,412 1017,411 1020,411 1020,408 1021,407 1024,407 1024,406 1025,405 1025,404 1026,403 1027,403 1029,401 1029,399 1030,398 1032,398 1033,397 1033,395 1034,394 1036,394 1038,392 1038,390 1039,389 1041,389 1042,388 1042,386 1043,385 1045,385 1046,384 1046,382 1048,380 1050,380 1050,379 1051,378 1051,377 1053,375 1054,375 1054,374 1055,373 1055,369 1057,367 1058,367 1059,366 1059,363 1060,362 1060,329 1059,328 1059,326 1058,325 1057,325 1056,324 1056,323 1055,322 1055,317 1053,317 1051,315 1051,313 1050,312 1050,311 1049,310 1049,309 1048,309 1046,307 1046,305 1045,305 1044,304 1043,304 1042,303 1040,303 1039,302 1040,301 1039,302 1038,301 1038,300 1037,299 1034,299 1032,297 1032,296 1031,296 1030,295 1021,295 1019,293 1019,292 1018,291 1015,291 1014,290 1013,291 1012,290 1011,291 1010,290 1007,290 1006,291" stroke="#3972E6" stroke-width="1" /><polygon fill="#3972E6" points="239,251 238,252 232,252 231,253 230,252 229,253 228,252 227,253 226,252 227,253 226,254 225,254 224,255 214,255 213,256 211,256 211,258 210,259 209,259 208,260 206,260 206,263 205,264 202,264 202,267 201,268 199,268 197,270 197,277 196,278 195,278 194,279 194,280 193,281 193,296 194,297 194,298 195,299 195,300 196,300 197,301 197,305 198,306 198,308 200,310 201,310 202,311 202,313 204,315 205,315 207,317 207,318 208,318 209,319 214,319 215,320 215,321 216,322 216,323 218,323 219,324 220,323 221,324 222,323 223,324 224,324 225,323 226,324 227,324 228,323 229,324 241,324 242,323 243,324 245,324 246,323 247,324 248,323 249,324 250,323 251,324 252,323 253,324 254,323 255,324 256,323 257,324 258,323 259,324 260,323 261,324 262,323 263,324 264,323 265,324 266,324 267,323 268,324 269,323 270,324 271,323 272,324 273,323 274,324 275,323 276,324 277,323 278,324 279,323 280,324 281,324 282,323 283,324 284,324 285,323 286,324 287,323 288,324 289,323 290,324 291,323 292,324 293,323 294,324 295,323 296,324 297,323 298,324 299,323 300,324 301,323 302,324 303,323 304,324 305,323 306,324 307,323 308,324 309,323 310,324 311,323 312,324 313,323 314,324 315,324 316,323 317,324 319,324 320,323 321,324 322,324 323,323 324,324 325,323 326,324 327,324 328,323 329,324 331,324 332,323 333,324 334,324 335,323 336,324 337,323 338,324 339,324 340,323 341,324 342,324 343,323 344,324 350,324 351,323 352,324 353,324 354,323 355,324 356,324 357,323 358,324 359,324 360,323 361,324 362,324 363,323 364,324 365,323 366,324 367,323 368,324 369,323 370,324 371,323 372,324 373,323 374,324 375,323 376,324 377,324 378,323 379,324 380,323 381,324 382,323 383,324 384,324 385,323 386,324 387,323 388,324 390,324 391,323 392,324 393,323 394,324 395,323 396,324 397,323 398,324 399,323 400,324 401,323 402,324 403,324 404,323 405,324 406,323 407,324 408,323 409,324 410,323 411,324 412,323 413,324 414,323 415,324 416,323 417,324 418,323 419,324 420,323 421,324 422,323 423,324 424,323 425,324 426,323 427,324 428,323 429,324 430,323 431,324 432,323 433,324 434,323 435,324 436,323 437,324 438,323 439,324 440,323 441,324 442,323 443,324 444,323 445,324 446,323 447,324 448,323 449,324 450,323 451,324 452,323 453,324 454,323 455,324 456,324 457,323 458,324 460,324 461,323 462,324 463,324 464,323 465,324 466,323 467,324 468,323 469,324 470,323 471,324 472,323 473,324 474,323 475,324 476,323 477,324 478,324 479,323 480,324 481,324 482,323 483,324 484,323 485,324 486,323 487,324 488,323 489,324 491,324 492,323 493,324 494,323 495,324 496,323 497,324 498,323 499,324 500,323 501,324 502,323 503,324 504,323 505,324 506,324 507,323 508,324 509,324 510,323 511,324 512,323 513,324 514,323 515,324 516,323 517,324 518,323 519,324 520,323 521,324 522,323 523,324 524,323 525,324 526,324 527,323 528,324 529,323 530,324 531,323 532,324 533,323 534,324 535,323 536,324 537,323 538,324 539,323 540,324 541,323 542,324 543,323 544,324 545,323 546,324 548,324 549,323 550,324 552,324 553,323 554,324 555,324 556,323 557,324 558,324 559,323 560,324 567,324 568,323 569,324 588,324 589,323 590,324 591,323 595,323 599,319 603,319 603,318 604,317 604,316 605,315 607,315 608,314 608,312 609,311 611,311 612,310 612,307 614,305 615,305 616,304 616,302 617,301 617,277 616,276 616,274 615,273 614,273 612,271 612,268 611,267 611,266 610,265 609,265 607,263 607,262 605,260 602,260 601,259 600,259 599,258 599,257 598,256 597,256 596,255 579,255 578,254 577,255 568,255 567,254 566,255 565,254 565,253 565,254 564,255 563,254 563,253 562,254 561,253 561,252 561,253 560,254 558,252 557,253 554,253 553,254 551,252 550,253 549,253 548,252 547,253 546,252 545,253 544,252 544,253 543,254 542,253 542,252 541,253 540,252 539,253 538,253 537,252 536,253 535,253 534,252 533,253 532,252 531,253 530,252 529,253 528,252 527,253 526,252 525,253 524,252 523,252 522,253 521,252 519,252 518,253 517,252 516,252 515,253 514,252 513,252 512,253 511,252 510,253 509,252 508,252 507,253 506,252 505,252 504,253 503,252 502,252 501,253 500,252 499,253 498,252 497,253 496,252 495,252 494,253 493,252 491,252 490,253 489,252 479,252 478,253 477,252 465,252 464,253 463,252 455,252 454,253 453,252 449,252 448,251 447,252 412,252 411,251 411,252 410,253 409,252 394,252 393,253 392,252 383,252 382,251 381,252 364,252 363,253 362,252 354,252 353,253 352,252 320,252 319,253 318,252 315,252 314,253 313,252 312,252 311,253 310,252 309,252 308,253 307,252 306,253 305,252 304,253 303,252 302,253 301,252 300,253 299,252 298,253 297,252 296,253 295,252 294,253 293,252 292,252 291,253 290,252 288,252 287,253 286,252 286,251 286,252 285,253 284,252 273,252 272,253 271,252 270,252 269,253 268,252 267,252 266,253 265,252 264,252 263,253 262,252 261,252 260,253 259,252 258,252 257,253 256,252 254,252 253,253 252,252 250,252 249,253 248,252 243,252 242,251 241,252 240,252" stroke="#3972E6" stroke-width="1" /><polygon fill="#3972E6" points="106,36 105,37 103,37 102,38 101,37 101,38 100,39 99,38 100,39 99,40 89,40 87,42 87,43 86,44 83,44 82,45 78,45 77,46 76,46 76,47 74,49 72,49 71,50 70,50 70,52 69,53 67,53 66,54 65,54 65,55 64,56 63,55 63,57 62,58 61,58 61,59 60,60 60,61 59,62 57,62 57,65 56,66 54,66 53,67 53,68 52,69 52,70 51,71 50,71 48,73 48,78 47,79 46,79 45,80 44,80 44,84 43,85 43,86 44,87 43,88 41,88 40,89 40,91 39,92 39,99 38,100 38,101 37,102 36,102 36,106 35,107 35,112 36,113 35,114 35,146 36,147 35,148 35,178 36,179 35,180 35,190 36,191 35,192 36,193 35,194 35,248 36,249 35,250 35,256 36,257 35,258 35,604 36,605 35,606 35,608 36,609 35,610 35,612 36,613 35,614 35,616 36,617 35,618 35,628 36,629 35,630 35,774 36,775 35,776 35,784 36,785 35,786 35,866 36,867 35,868 35,870 36,871 35,872 35,880 36,881 35,882 35,884 36,885 35,886 36,887 35,888 36,889 35,890 36,891 35,892 35,894 36,895 35,896 35,968 36,969 35,970 35,976 36,977 36,987 38,989 37,990 38,989 39,990 39,999 40,1000 40,1002 42,1004 43,1004 44,1005 44,1011 45,1012 46,1012 48,1014 48,1020 49,1020 50,1021 51,1021 52,1022 52,1023 53,1024 53,1026 54,1026 55,1027 54,1028 55,1027 57,1029 57,1031 58,1032 58,1033 59,1034 60,1034 62,1036 62,1037 63,1038 64,1038 65,1039 66,1039 67,1040 67,1041 68,1042 69,1042 70,1043 73,1043 74,1044 74,1045 75,1046 75,1047 77,1047 78,1048 80,1048 81,1049 81,1050 82,1051 83,1051 84,1052 91,1052 92,1053 92,1054 94,1056 112,1056 113,1057 114,1056 115,1056 116,1057 117,1056 118,1057 119,1056 120,1057 121,1056 122,1056 123,1057 122,1058 124,1056 125,1057 126,1056 127,1057 128,1056 133,1056 134,1057 135,1056 136,1057 137,1056 138,1057 139,1056 140,1057 141,1056 142,1057 143,1056 144,1056 145,1057 144,1058 146,1056 147,1057 148,1056 149,1057 150,1056 151,1057 152,1056 153,1057 154,1056 155,1057 156,1056 157,1057 158,1056 159,1057 160,1056 161,1057 162,1056 163,1057 164,1056 165,1057 166,1056 167,1057 168,1056 169,1057 170,1056 171,1057 172,1056 173,1056 174,1057 173,1058 175,1056 179,1056 180,1057 181,1056 182,1056 183,1057 182,1058 184,1056 185,1057 186,1056 187,1057 188,1056 189,1057 190,1057 191,1056 192,1057 192,1058 192,1057 193,1056 194,1057 195,1057 196,1056 197,1057 198,1056 199,1057 200,1057 201,1056 203,1058 205,1056 207,1058 206,1057 207,1056 208,1056 209,1057 210,1056 211,1056 212,1057 211,1058 212,1057 213,1058 214,1057 215,1058 217,1056 218,1057 219,1056 220,1057 221,1056 222,1057 223,1056 224,1056 225,1057 224,1058 226,1056 227,1057 228,1056 229,1057 230,1056 231,1057 232,1056 233,1057 234,1056 235,1057 236,1056 237,1056 238,1057 237,1058 239,1056 240,1057 241,1056 242,1057 243,1056 244,1057 245,1056 246,1057 247,1056 248,1057 249,1056 251,1058 253,1056 254,1056 255,1057 254,1058 256,1056 257,1057 258,1056 265,1056 266,1057 265,1058 267,1056 268,1056 269,1057 268,1058 270,1056 271,1057 272,1056 273,1057 274,1056 275,1056 276,1057 275,1058 277,1056 278,1057 279,1057 280,1056 281,1057 282,1056 285,1056 286,1057 285,1058 287,1056 289,1058 291,1056 292,1057 293,1056 294,1057 295,1056 296,1057 297,1056 298,1057 299,1056 301,1058 300,1057 301,1056 302,1056 303,1057 304,1056 305,1056 306,1057 305,1058 307,1056 308,1056 309,1057 308,1058 310,1056 312,1058 314,1056 315,1057 316,1057 317,1056 318,1057 319,1057 320,1056 321,1057 322,1057 323,1056 324,1057 325,1056 326,1057 327,1056 328,1057 329,1056 330,1057 331,1056 332,1057 333,1056 334,1057 335,1056 336,1057 337,1056 338,1057 339,1057 340,1056 341,1057 341,1058 341,1057 342,1056 343,1057 344,1057 345,1056 346,1057 347,1056 348,1057 349,1056 351,1058 350,1057 351,1056 352,1056 354,1058 356,1056 357,1057 358,1056 359,1056 360,1057 361,1056 366,1056 367,1057 368,1056 369,1057 370,1056 371,1057 372,1056 373,1057 374,1056 375,1056 376,1057 375,1058 377,1056 381,1056 382,1057 383,1056 384,1057 385,1056 386,1057 387,1056 388,1057 389,1056 390,1057 391,1056 392,1057 393,1056 394,1057 395,1056 396,1057 397,1056 398,1057 399,1056 400,1057 401,1056 402,1057 403,1056 404,1057 405,1056 406,1057 407,1056 408,1057 409,1056 410,1057 411,1056 412,1057 413,1056 414,1057 415,1056 416,1057 417,1056 421,1056 422,1057 423,1056 425,1058 424,1057 425,1056 426,1056 428,1058 429,1057 430,1057 431,1058 433,1056 435,1058 436,1057 437,1058 438,1057 439,1058 440,1057 441,1057 442,1058 443,1057 444,1057 445,1056 446,1057 447,1056 448,1057 449,1056 451,1058 453,1056 454,1057 455,1056 456,1057 457,1056 458,1057 459,1056 460,1057 460,1058 460,1057 461,1056 463,1058 464,1057 465,1058 466,1057 467,1058 468,1057 469,1057 470,1058 471,1057 476,1057 477,1058 478,1057 479,1057 480,1058 481,1057 482,1058 484,1056 485,1057 485,1058 486,1057 487,1058 488,1057 489,1058 490,1057 491,1058 492,1057 493,1058 494,1057 495,1058 496,1057 497,1057 498,1056 499,1057 500,1056 501,1057 502,1056 503,1057 504,1056 505,1057 506,1056 508,1058 510,1056 511,1057 512,1056 513,1057 514,1056 515,1057 516,1056 517,1057 518,1056 519,1057 520,1056 521,1057 522,1057 523,1058 524,1057 525,1058 526,1057 527,1058 529,1056 530,1057 531,1056 532,1057 533,1056 534,1057 535,1056 536,1057 537,1056 539,1058 541,1056 542,1057 543,1056 544,1057 545,1056 546,1057 547,1056 548,1057 549,1056 550,1057 551,1056 552,1057 553,1056 554,1057 555,1056 556,1057 557,1056 558,1057 559,1056 560,1057 561,1056 562,1057 563,1056 564,1057 565,1056 567,1058 569,1056 570,1057 571,1056 572,1057 573,1056 574,1057 575,1056 576,1057 577,1056 578,1057 579,1056 580,1057 581,1056 582,1057 583,1056 584,1057 585,1056 586,1057 586,1058 587,1059 586,1058 586,1057 587,1056 588,1057 589,1056 590,1057 591,1056 592,1057 593,1056 594,1057 595,1056 596,1057 597,1056 598,1057 599,1056 601,1058 603,1056 605,1058 607,1056 609,1058 610,1057 611,1058 612,1057 613,1057 614,1058 615,1057 616,1057 617,1058 618,1057 619,1057 620,1058 622,1056 623,1057 624,1057 625,1058 626,1057 627,1058 629,1056 630,1057 631,1056 632,1057 633,1057 634,1056 635,1057 635,1058 635,1057 636,1056 637,1057 638,1056 639,1057 640,1056 641,1056 642,1057 641,1058 643,1056 644,1056 645,1057 644,1058 646,1056 649,1056 650,1057 649,1058 651,1056 652,1057 653,1056 654,1057 655,1056 658,1056 659,1057 660,1056 662,1056 663,1057 664,1056 665,1057 666,1056 667,1057 668,1056 669,1057 670,1056 671,1057 672,1056 673,1057 674,1057 675,1058 676,1057 677,1057 678,1056 679,1057 680,1057 681,1056 682,1056 683,1057 682,1058 684,1056 685,1057 686,1056 688,1058 689,1057 690,1057 691,1056 692,1057 693,1057 694,1056 695,1057 695,1058 695,1057 696,1056 697,1057 698,1057 699,1056 700,1057 701,1057 702,1056 703,1057 704,1057 705,1056 706,1057 707,1056 708,1057 709,1056 710,1057 711,1056 712,1057 713,1056 717,1056 718,1057 719,1056 720,1057 721,1056 722,1057 723,1056 724,1057 725,1056 726,1057 727,1056 728,1056 729,1057 728,1058 730,1056 731,1057 732,1056 733,1057 734,1056 735,1057 736,1056 738,1058 740,1056 741,1057 742,1056 743,1057 744,1057 745,1056 746,1057 747,1056 748,1057 749,1056 750,1057 751,1056 752,1057 753,1056 754,1057 755,1056 756,1056 757,1057 756,1058 758,1056 759,1057 760,1056 761,1057 762,1056 764,1056 765,1057 766,1056 792,1056 793,1055 794,1055 795,1054 795,1053 796,1052 803,1052 804,1051 805,1051 805,1049 806,1048 808,1048 809,1047 813,1047 813,1045 815,1043 818,1043 818,1040 819,1039 821,1039 823,1037 823,1035 824,1034 827,1034 827,1031 828,1030 830,1030 831,1029 831,1028 832,1027 832,1026 833,1025 835,1025 836,1024 836,1020 838,1018 839,1019 838,1018 839,1017 840,1017 840,1013 841,1012 841,1011 842,1010 843,1011 842,1010 844,1008 844,1006 845,1005 845,998 848,995 848,994 849,993 849,677 848,677 847,676 844,676 843,677 842,677 842,679 840,681 838,681 838,684 837,685 835,685 833,687 833,688 832,689 831,689 830,690 829,690 829,693 828,694 825,694 825,695 824,696 824,697 823,698 821,698 820,699 820,701 819,702 818,702 817,703 816,703 816,705 814,707 812,707 812,708 811,709 811,710 810,711 809,711 808,712 807,712 807,713 804,716 803,716 802,717 802,719 801,720 799,720 798,721 798,723 797,724 795,724 794,725 794,726 791,729 790,729 790,730 789,731 789,732 788,733 787,733 786,734 785,734 785,737 784,738 782,738 781,739 781,982 779,984 777,984 777,986 775,988 109,988 108,987 108,986 107,985 107,984 106,983 105,983 104,982 104,967 103,966 104,965 104,672 103,671 104,670 104,533 103,532 103,529 104,528 104,116 105,115 105,114 106,113 107,113 108,112 108,110 109,109 780,109 781,110 781,118 780,119 781,120 780,121 781,122 781,288 780,289 781,290 781,298 780,299 781,300 781,335 782,336 782,337 783,337 784,338 783,339 784,338 785,339 785,345 789,349 789,351 790,352 790,353 791,354 793,354 794,355 794,356 796,358 797,358 798,359 804,359 805,360 804,361 805,360 806,361 806,362 807,362 808,363 822,363 823,362 824,362 825,361 826,361 826,360 827,359 833,359 834,358 835,358 836,357 836,355 837,354 840,354 840,351 841,350 843,350 844,349 844,348 845,347 845,342 846,341 847,341 849,339 849,107 848,106 848,105 847,104 847,103 846,103 845,102 845,91 844,90 844,89 841,86 841,84 840,83 840,78 839,77 838,77 836,75 836,72 835,71 833,71 832,70 832,68 830,66 830,65 829,65 827,63 827,61 826,60 826,59 825,59 824,58 823,58 821,56 821,55 820,55 819,54 818,54 817,53 815,53 814,52 814,50 813,49 809,49 808,48 808,47 807,47 805,45 802,45 798,41 796,41 795,40 788,40 787,39 786,39 785,38 785,37 783,37 782,36 781,37 780,36" stroke="#3972E6" stroke-width="1" /></svg>